<mxfile host="app.diagrams.net" modified="2022-05-29T06:40:42.408Z" agent="5.0 (Windows NT 10.0; Win64; x64) AppleWebKit/537.36 (KHTML, like Gecko) Chrome/101.0.4951.64 Safari/537.36 Edg/101.0.1210.53" etag="rbQUDwIgGSAwziaYS-yh" version="18.1.3" type="github">
  <diagram id="QJzVFI7wwdKh4ksq5DaL" name="Page-1">
    <mxGraphModel dx="691" dy="365" grid="1" gridSize="10" guides="1" tooltips="1" connect="1" arrows="1" fold="1" page="1" pageScale="1" pageWidth="827" pageHeight="1169" math="0" shadow="0">
      <root>
        <mxCell id="0" />
        <mxCell id="1" parent="0" />
        <mxCell id="GDryrx9n8suL0AO0dyz_-115" value="" style="group" vertex="1" connectable="0" parent="1">
          <mxGeometry x="160" y="190.87" width="164.21857142857147" height="126.96043478260867" as="geometry" />
        </mxCell>
        <mxCell id="GDryrx9n8suL0AO0dyz_-5" value="" style="ellipse;whiteSpace=wrap;html=1;aspect=fixed;" vertex="1" parent="GDryrx9n8suL0AO0dyz_-115">
          <mxGeometry x="39.28571428571428" y="72.60434782608695" width="10" height="10" as="geometry" />
        </mxCell>
        <mxCell id="GDryrx9n8suL0AO0dyz_-6" style="edgeStyle=none;rounded=0;orthogonalLoop=1;jettySize=auto;html=1;entryX=0.5;entryY=0;entryDx=0;entryDy=0;endArrow=none;endFill=0;" edge="1" parent="GDryrx9n8suL0AO0dyz_-115" source="GDryrx9n8suL0AO0dyz_-7" target="GDryrx9n8suL0AO0dyz_-5">
          <mxGeometry relative="1" as="geometry" />
        </mxCell>
        <mxCell id="GDryrx9n8suL0AO0dyz_-7" value="" style="ellipse;whiteSpace=wrap;html=1;aspect=fixed;fillColor=#ffcc99;strokeColor=#36393d;" vertex="1" parent="GDryrx9n8suL0AO0dyz_-115">
          <mxGeometry x="45" y="9.999565217391307" width="10" height="10" as="geometry" />
        </mxCell>
        <mxCell id="GDryrx9n8suL0AO0dyz_-8" style="edgeStyle=none;rounded=0;orthogonalLoop=1;jettySize=auto;html=1;entryX=1;entryY=1;entryDx=0;entryDy=0;endArrow=none;endFill=0;" edge="1" parent="GDryrx9n8suL0AO0dyz_-115" source="GDryrx9n8suL0AO0dyz_-9" target="GDryrx9n8suL0AO0dyz_-7">
          <mxGeometry relative="1" as="geometry" />
        </mxCell>
        <mxCell id="GDryrx9n8suL0AO0dyz_-9" value="" style="ellipse;whiteSpace=wrap;html=1;aspect=fixed;fillColor=#ffcc99;strokeColor=#36393d;" vertex="1" parent="GDryrx9n8suL0AO0dyz_-115">
          <mxGeometry x="100" y="37.82565217391303" width="10" height="10" as="geometry" />
        </mxCell>
        <mxCell id="GDryrx9n8suL0AO0dyz_-10" value="" style="ellipse;whiteSpace=wrap;html=1;aspect=fixed;" vertex="1" parent="GDryrx9n8suL0AO0dyz_-115">
          <mxGeometry y="65.64782608695651" width="10" height="10" as="geometry" />
        </mxCell>
        <mxCell id="GDryrx9n8suL0AO0dyz_-11" style="edgeStyle=none;rounded=0;orthogonalLoop=1;jettySize=auto;html=1;entryX=1;entryY=0;entryDx=0;entryDy=0;endArrow=none;endFill=0;" edge="1" parent="GDryrx9n8suL0AO0dyz_-115" source="GDryrx9n8suL0AO0dyz_-5" target="GDryrx9n8suL0AO0dyz_-10">
          <mxGeometry relative="1" as="geometry" />
        </mxCell>
        <mxCell id="GDryrx9n8suL0AO0dyz_-12" style="edgeStyle=none;rounded=0;orthogonalLoop=1;jettySize=auto;html=1;entryX=1;entryY=1;entryDx=0;entryDy=0;endArrow=none;endFill=0;" edge="1" parent="GDryrx9n8suL0AO0dyz_-115" source="GDryrx9n8suL0AO0dyz_-13" target="GDryrx9n8suL0AO0dyz_-10">
          <mxGeometry relative="1" as="geometry" />
        </mxCell>
        <mxCell id="GDryrx9n8suL0AO0dyz_-13" value="" style="ellipse;whiteSpace=wrap;html=1;aspect=fixed;" vertex="1" parent="GDryrx9n8suL0AO0dyz_-115">
          <mxGeometry x="23.571428571428555" y="107.38695652173914" width="10" height="10" as="geometry" />
        </mxCell>
        <mxCell id="GDryrx9n8suL0AO0dyz_-14" style="edgeStyle=none;rounded=0;orthogonalLoop=1;jettySize=auto;html=1;entryX=0.5;entryY=0;entryDx=0;entryDy=0;endArrow=none;endFill=0;" edge="1" parent="GDryrx9n8suL0AO0dyz_-115" source="GDryrx9n8suL0AO0dyz_-5" target="GDryrx9n8suL0AO0dyz_-13">
          <mxGeometry relative="1" as="geometry" />
        </mxCell>
        <mxCell id="GDryrx9n8suL0AO0dyz_-15" style="edgeStyle=none;rounded=0;orthogonalLoop=1;jettySize=auto;html=1;entryX=1;entryY=0;entryDx=0;entryDy=0;endArrow=none;endFill=0;" edge="1" parent="GDryrx9n8suL0AO0dyz_-115" source="GDryrx9n8suL0AO0dyz_-16" target="GDryrx9n8suL0AO0dyz_-7">
          <mxGeometry relative="1" as="geometry" />
        </mxCell>
        <mxCell id="GDryrx9n8suL0AO0dyz_-16" value="" style="ellipse;whiteSpace=wrap;html=1;aspect=fixed;" vertex="1" parent="GDryrx9n8suL0AO0dyz_-115">
          <mxGeometry x="78.57428571428574" width="10" height="10" as="geometry" />
        </mxCell>
        <mxCell id="GDryrx9n8suL0AO0dyz_-18" value="" style="ellipse;whiteSpace=wrap;html=1;aspect=fixed;" vertex="1" parent="GDryrx9n8suL0AO0dyz_-115">
          <mxGeometry x="123.57142857142856" y="65.65173913043475" width="10" height="10" as="geometry" />
        </mxCell>
        <mxCell id="GDryrx9n8suL0AO0dyz_-19" style="edgeStyle=none;rounded=0;orthogonalLoop=1;jettySize=auto;html=1;entryX=0.5;entryY=0;entryDx=0;entryDy=0;endArrow=none;endFill=0;" edge="1" parent="GDryrx9n8suL0AO0dyz_-115" source="GDryrx9n8suL0AO0dyz_-9" target="GDryrx9n8suL0AO0dyz_-18">
          <mxGeometry relative="1" as="geometry" />
        </mxCell>
        <mxCell id="GDryrx9n8suL0AO0dyz_-20" style="edgeStyle=none;rounded=0;orthogonalLoop=1;jettySize=auto;html=1;entryX=1;entryY=0;entryDx=0;entryDy=0;endArrow=none;endFill=0;" edge="1" parent="GDryrx9n8suL0AO0dyz_-115" source="GDryrx9n8suL0AO0dyz_-22" target="GDryrx9n8suL0AO0dyz_-5">
          <mxGeometry relative="1" as="geometry" />
        </mxCell>
        <mxCell id="GDryrx9n8suL0AO0dyz_-21" style="edgeStyle=none;rounded=0;orthogonalLoop=1;jettySize=auto;html=1;entryX=0;entryY=0.5;entryDx=0;entryDy=0;endArrow=none;endFill=0;" edge="1" parent="GDryrx9n8suL0AO0dyz_-115" source="GDryrx9n8suL0AO0dyz_-22" target="GDryrx9n8suL0AO0dyz_-18">
          <mxGeometry relative="1" as="geometry" />
        </mxCell>
        <mxCell id="GDryrx9n8suL0AO0dyz_-22" value="" style="ellipse;whiteSpace=wrap;html=1;aspect=fixed;fillColor=#ffcc99;strokeColor=#36393d;" vertex="1" parent="GDryrx9n8suL0AO0dyz_-115">
          <mxGeometry x="70.71428571428572" y="58.691304347826076" width="10" height="10" as="geometry" />
        </mxCell>
        <mxCell id="GDryrx9n8suL0AO0dyz_-23" style="edgeStyle=none;rounded=0;orthogonalLoop=1;jettySize=auto;html=1;entryX=1;entryY=1;entryDx=0;entryDy=0;endArrow=none;endFill=0;fillColor=#ffcc99;strokeColor=#36393d;" edge="1" parent="GDryrx9n8suL0AO0dyz_-115" source="GDryrx9n8suL0AO0dyz_-24" target="GDryrx9n8suL0AO0dyz_-5">
          <mxGeometry relative="1" as="geometry" />
        </mxCell>
        <mxCell id="GDryrx9n8suL0AO0dyz_-24" value="" style="ellipse;whiteSpace=wrap;html=1;aspect=fixed;" vertex="1" parent="GDryrx9n8suL0AO0dyz_-115">
          <mxGeometry x="78.57142857142856" y="107.38695652173914" width="10" height="10" as="geometry" />
        </mxCell>
        <mxCell id="GDryrx9n8suL0AO0dyz_-25" style="edgeStyle=none;rounded=0;orthogonalLoop=1;jettySize=auto;html=1;entryX=0.5;entryY=0;entryDx=0;entryDy=0;endArrow=none;endFill=0;" edge="1" parent="GDryrx9n8suL0AO0dyz_-115" source="GDryrx9n8suL0AO0dyz_-22" target="GDryrx9n8suL0AO0dyz_-24">
          <mxGeometry relative="1" as="geometry" />
        </mxCell>
        <mxCell id="GDryrx9n8suL0AO0dyz_-26" value="" style="ellipse;whiteSpace=wrap;html=1;aspect=fixed;" vertex="1" parent="GDryrx9n8suL0AO0dyz_-115">
          <mxGeometry x="154.21428571428572" y="44.782173913043465" width="10" height="10" as="geometry" />
        </mxCell>
        <mxCell id="GDryrx9n8suL0AO0dyz_-27" value="" style="rounded=0;orthogonalLoop=1;jettySize=auto;html=1;endArrow=none;endFill=0;" edge="1" parent="GDryrx9n8suL0AO0dyz_-115" source="GDryrx9n8suL0AO0dyz_-9" target="GDryrx9n8suL0AO0dyz_-26">
          <mxGeometry relative="1" as="geometry" />
        </mxCell>
        <mxCell id="GDryrx9n8suL0AO0dyz_-28" style="edgeStyle=none;rounded=0;orthogonalLoop=1;jettySize=auto;html=1;entryX=0.5;entryY=1;entryDx=0;entryDy=0;endArrow=none;endFill=0;" edge="1" parent="GDryrx9n8suL0AO0dyz_-115" source="GDryrx9n8suL0AO0dyz_-18" target="GDryrx9n8suL0AO0dyz_-26">
          <mxGeometry relative="1" as="geometry" />
        </mxCell>
        <mxCell id="GDryrx9n8suL0AO0dyz_-29" style="edgeStyle=none;rounded=0;orthogonalLoop=1;jettySize=auto;html=1;endArrow=none;endFill=0;entryX=0;entryY=0;entryDx=0;entryDy=0;" edge="1" parent="GDryrx9n8suL0AO0dyz_-115" source="GDryrx9n8suL0AO0dyz_-30" target="GDryrx9n8suL0AO0dyz_-26">
          <mxGeometry relative="1" as="geometry">
            <mxPoint x="162.8571428571429" y="44.782173913043465" as="targetPoint" />
          </mxGeometry>
        </mxCell>
        <mxCell id="GDryrx9n8suL0AO0dyz_-30" value="" style="ellipse;whiteSpace=wrap;html=1;aspect=fixed;fillColor=#ffcc99;strokeColor=#36393d;" vertex="1" parent="GDryrx9n8suL0AO0dyz_-115">
          <mxGeometry x="138.5" y="9.999565217391307" width="10" height="10" as="geometry" />
        </mxCell>
        <mxCell id="GDryrx9n8suL0AO0dyz_-31" value="" style="rounded=0;orthogonalLoop=1;jettySize=auto;html=1;endArrow=none;endFill=0;" edge="1" parent="GDryrx9n8suL0AO0dyz_-115" source="GDryrx9n8suL0AO0dyz_-9" target="GDryrx9n8suL0AO0dyz_-30">
          <mxGeometry relative="1" as="geometry" />
        </mxCell>
        <mxCell id="GDryrx9n8suL0AO0dyz_-32" value="" style="ellipse;whiteSpace=wrap;html=1;aspect=fixed;" vertex="1" parent="GDryrx9n8suL0AO0dyz_-115">
          <mxGeometry x="129.0757142857143" y="116.96043478260867" width="10" height="10" as="geometry" />
        </mxCell>
        <mxCell id="GDryrx9n8suL0AO0dyz_-33" value="" style="ellipse;whiteSpace=wrap;html=1;aspect=fixed;fillColor=#ffcc99;strokeColor=#36393d;" vertex="1" parent="GDryrx9n8suL0AO0dyz_-115">
          <mxGeometry x="117.29000000000002" y="96.09086956521736" width="10" height="10" as="geometry" />
        </mxCell>
        <mxCell id="GDryrx9n8suL0AO0dyz_-17" style="edgeStyle=none;rounded=0;orthogonalLoop=1;jettySize=auto;html=1;endArrow=none;endFill=0;entryX=0;entryY=0;entryDx=0;entryDy=0;" edge="1" parent="GDryrx9n8suL0AO0dyz_-115" source="GDryrx9n8suL0AO0dyz_-18" target="GDryrx9n8suL0AO0dyz_-33">
          <mxGeometry relative="1" as="geometry">
            <mxPoint x="153.42857142857144" y="107.39086956521737" as="targetPoint" />
          </mxGeometry>
        </mxCell>
        <mxCell id="GDryrx9n8suL0AO0dyz_-34" style="edgeStyle=none;rounded=0;orthogonalLoop=1;jettySize=auto;html=1;entryX=0;entryY=0.5;entryDx=0;entryDy=0;endArrow=none;endFill=0;" edge="1" parent="GDryrx9n8suL0AO0dyz_-115" source="GDryrx9n8suL0AO0dyz_-35" target="GDryrx9n8suL0AO0dyz_-32">
          <mxGeometry relative="1" as="geometry" />
        </mxCell>
        <mxCell id="GDryrx9n8suL0AO0dyz_-35" value="" style="ellipse;whiteSpace=wrap;html=1;aspect=fixed;" vertex="1" parent="GDryrx9n8suL0AO0dyz_-115">
          <mxGeometry x="106.29000000000002" y="116.96043478260867" width="10" height="10" as="geometry" />
        </mxCell>
        <mxCell id="GDryrx9n8suL0AO0dyz_-36" style="edgeStyle=none;rounded=0;orthogonalLoop=1;jettySize=auto;html=1;entryX=0.5;entryY=0;entryDx=0;entryDy=0;endArrow=none;endFill=0;" edge="1" parent="GDryrx9n8suL0AO0dyz_-115" source="GDryrx9n8suL0AO0dyz_-33" target="GDryrx9n8suL0AO0dyz_-35">
          <mxGeometry relative="1" as="geometry" />
        </mxCell>
        <mxCell id="GDryrx9n8suL0AO0dyz_-37" value="" style="ellipse;whiteSpace=wrap;html=1;aspect=fixed;" vertex="1" parent="GDryrx9n8suL0AO0dyz_-115">
          <mxGeometry x="154.21857142857147" y="89.13434782608692" width="10" height="10" as="geometry" />
        </mxCell>
        <mxCell id="GDryrx9n8suL0AO0dyz_-38" style="edgeStyle=none;rounded=0;orthogonalLoop=1;jettySize=auto;html=1;entryX=0;entryY=1;entryDx=0;entryDy=0;endArrow=none;endFill=0;" edge="1" parent="GDryrx9n8suL0AO0dyz_-115" source="GDryrx9n8suL0AO0dyz_-32" target="GDryrx9n8suL0AO0dyz_-37">
          <mxGeometry relative="1" as="geometry" />
        </mxCell>
        <mxCell id="GDryrx9n8suL0AO0dyz_-39" style="edgeStyle=none;rounded=0;orthogonalLoop=1;jettySize=auto;html=1;entryX=0;entryY=0.5;entryDx=0;entryDy=0;endArrow=none;endFill=0;" edge="1" parent="GDryrx9n8suL0AO0dyz_-115" source="GDryrx9n8suL0AO0dyz_-33" target="GDryrx9n8suL0AO0dyz_-37">
          <mxGeometry relative="1" as="geometry" />
        </mxCell>
      </root>
    </mxGraphModel>
  </diagram>
</mxfile>
